<?xml version="1.0" encoding="UTF-8" standalone="no"?>
<svg
   viewBox="0 0 128 128"
   id="mysql"
   version="1.1"
   sodipodi:docname="mysql.svg"
   inkscape:version="1.4.2 (f4327f4, 2025-05-13)"
   xmlns:inkscape="http://www.inkscape.org/namespaces/inkscape"
   xmlns:sodipodi="http://sodipodi.sourceforge.net/DTD/sodipodi-0.dtd"
   xmlns="http://www.w3.org/2000/svg"
   xmlns:svg="http://www.w3.org/2000/svg">
  <defs
     id="defs3" />
  <sodipodi:namedview
     id="namedview3"
     pagecolor="#ffffff"
     bordercolor="#000000"
     borderopacity="0.25"
     inkscape:showpageshadow="2"
     inkscape:pageopacity="0.0"
     inkscape:pagecheckerboard="0"
     inkscape:deskcolor="#d1d1d1"
     inkscape:zoom="6.3046875"
     inkscape:cx="64"
     inkscape:cy="64"
     inkscape:window-width="1920"
     inkscape:window-height="1009"
     inkscape:window-x="-8"
     inkscape:window-y="-8"
     inkscape:window-maximized="1"
     inkscape:current-layer="mysql" />
  <g
     id="g3"
     transform="matrix(0.90790188,0,0,0.90790188,5.8942334,5.8941975)">
    <path
       fill="#00618a"
       d="M 2.001,90.458 H 6.109 V 74.235 l 6.36,14.143 c 0.75,1.712 1.777,2.317 3.792,2.317 2.015,0 3.003,-0.605 3.753,-2.317 l 6.36,-14.143 v 16.223 h 4.108 V 74.262 c 0,-1.58 -0.632,-2.345 -1.936,-2.739 -3.121,-0.974 -5.215,-0.131 -6.163,1.976 L 16.142,87.457 10.099,73.498 C 9.19,71.392 7.057,70.549 3.936,71.522 2.632,71.917 2,72.681 2,74.261 V 90.458 Z M 33.899,77.252 h 4.107 v 8.938 c -0.038,0.485 0.156,1.625 2.406,1.661 1.148,0.018 8.862,0 8.934,0 V 77.208 h 4.117 c 0.019,0 -0.004,14.514 -0.004,14.574 0.022,3.58 -4.441,4.357 -6.499,4.417 H 33.988 v -2.764 c 0.022,0 12.963,0.003 12.995,-0.001 2.645,-0.279 2.332,-1.593 2.331,-2.035 v -1.078 h -8.731 c -4.062,-0.037 -6.65,-1.81 -6.683,-3.85 -0.002,-0.187 0.089,-9.129 -10e-4,-9.219 z"
       id="path1" />
    <path
       fill="#e48e00"
       d="m 56.63,90.458 h 11.812 c 1.383,0 2.727,-0.289 3.793,-0.789 1.777,-0.816 2.646,-1.922 2.646,-3.372 v -3.002 c 0,-1.185 -0.987,-2.292 -2.923,-3.028 -1.027,-0.396 -2.292,-0.605 -3.517,-0.605 h -4.978 c -1.659,0 -2.449,-0.5 -2.646,-1.606 -0.039,-0.132 -0.039,-0.237 -0.039,-0.369 v -1.87 c 0,-0.105 0,-0.211 0.039,-0.342 0.197,-0.843 0.632,-1.08 2.094,-1.212 l 0.395,-0.026 H 75.039 V 71.499 H 63.504 c -1.659,0 -2.528,0.105 -3.318,0.342 -2.449,0.764 -3.517,1.975 -3.517,4.082 v 2.396 c 0,1.844 2.095,3.424 5.61,3.793 0.396,0.025 0.79,0.053 1.185,0.053 h 4.267 c 0.158,0 0.316,0 0.435,0.025 1.304,0.105 1.856,0.343 2.252,0.816 0.237,0.237 0.315,0.475 0.315,0.737 v 2.397 c 0,0.289 -0.197,0.658 -0.592,0.974 -0.355,0.316 -0.948,0.527 -1.738,0.58 L 67.968,87.72 H 56.63 Z m 43.881,-4.766 c 0,2.817 2.094,4.397 6.32,4.714 0.395,0.026 0.79,0.052 1.185,0.052 h 10.706 V 87.72 h -10.784 c -2.41,0 -3.318,-0.606 -3.318,-2.055 V 71.497 h -4.108 v 14.195 z m -23.008,0.142 v -9.765 c 0,-2.48 1.742,-3.985 5.186,-4.46 0.356,-0.053 0.753,-0.079 1.108,-0.079 h 7.799 c 0.396,0 0.752,0.026 1.147,0.079 3.444,0.475 5.187,1.979 5.187,4.46 v 9.765 c 0,2.014 -0.74,3.09 -2.445,3.792 l 4.048,3.653 h -4.771 l -3.274,-2.956 -3.296,0.209 h -4.395 c -0.752,0 -1.543,-0.105 -2.414,-0.343 -2.613,-0.712 -3.88,-2.085 -3.88,-4.355 z m 4.434,-0.237 c 0,0.132 0.039,0.265 0.079,0.423 0.237,1.135 1.307,1.768 2.929,1.768 h 3.732 l -3.428,-3.095 h 4.771 l 2.989,2.7 c 0.552,-0.295 0.914,-0.743 1.041,-1.32 0.039,-0.132 0.039,-0.264 0.039,-0.396 v -9.368 c 0,-0.105 0,-0.238 -0.039,-0.37 -0.238,-1.056 -1.307,-1.662 -2.89,-1.662 h -6.216 c -1.82,0 -3.008,0.792 -3.008,2.032 v 9.288 z"
       id="path2" />
    <path
       fill="#00618a"
       d="m 122.336,66.952 c -2.525,-0.069 -4.454,0.166 -6.104,0.861 -0.469,0.198 -1.216,0.203 -1.292,0.79 0.257,0.271 0.297,0.674 0.502,1.006 0.394,0.637 1.059,1.491 1.652,1.938 0.647,0.489 1.315,1.013 2.011,1.437 1.235,0.754 2.615,1.184 3.806,1.938 0.701,0.446 1.397,1.006 2.082,1.509 0.339,0.247 0.565,0.634 1.006,0.789 v -0.071 c -0.231,-0.294 -0.291,-0.698 -0.503,-1.006 l -0.934,-0.934 c -0.913,-1.212 -2.071,-2.275 -3.304,-3.159 -0.982,-0.705 -3.18,-1.658 -3.59,-2.801 l -0.072,-0.071 c 0.696,-0.079 1.512,-0.331 2.154,-0.503 1.08,-0.29 2.045,-0.215 3.16,-0.503 l 1.508,-0.432 v -0.286 c -0.563,-0.578 -0.966,-1.344 -1.58,-1.867 -1.607,-1.369 -3.363,-2.737 -5.17,-3.879 -1.002,-0.632 -2.241,-1.043 -3.304,-1.579 -0.356,-0.181 -0.984,-0.274 -1.221,-0.575 -0.559,-0.711 -0.862,-1.612 -1.293,-2.441 -0.9,-1.735 -1.786,-3.631 -2.585,-5.458 -0.544,-1.245 -0.9,-2.473 -1.579,-3.59 -3.261,-5.361 -6.771,-8.597 -12.208,-11.777 -1.157,-0.677 -2.55,-0.943 -4.021,-1.292 l -2.37,-0.144 c -0.481,-0.201 -0.983,-0.791 -1.436,-1.077 -1.802,-1.138 -6.422,-3.613 -7.756,-0.358 -0.842,2.054 1.26,4.058 2.011,5.099 0.527,0.73 1.203,1.548 1.58,2.369 0.248,0.54 0.29,1.081 0.503,1.652 0.521,1.406 0.976,2.937 1.651,4.236 0.341,0.658 0.718,1.351 1.149,1.939 0.264,0.36 0.718,0.52 0.789,1.077 -0.443,0.62 -0.469,1.584 -0.718,2.369 -1.122,3.539 -0.699,7.938 0.934,10.557 0.501,0.805 1.681,2.529 3.303,1.867 1.419,-0.578 1.103,-2.369 1.509,-3.95 0.092,-0.357 0.035,-0.621 0.215,-0.861 v 0.072 l 1.293,2.585 c 0.957,1.541 2.654,3.15 4.093,4.237 0.746,0.563 1.334,1.538 2.298,1.867 v -0.073 h -0.071 c -0.188,-0.291 -0.479,-0.411 -0.719,-0.646 -0.562,-0.551 -1.187,-1.235 -1.651,-1.867 -1.309,-1.776 -2.465,-3.721 -3.519,-5.745 -0.503,-0.966 -0.94,-2.032 -1.364,-3.016 -0.164,-0.379 -0.162,-0.953 -0.502,-1.148 -0.466,0.72 -1.149,1.303 -1.509,2.154 -0.574,1.36 -0.648,3.019 -0.861,4.739 l -0.144,0.071 c -1.001,-0.241 -1.352,-1.271 -1.724,-2.154 -0.94,-2.233 -1.115,-5.83 -0.287,-8.401 0.214,-0.666 1.181,-2.761 0.789,-3.376 -0.187,-0.613 -0.804,-0.967 -1.148,-1.437 -0.427,-0.579 -0.854,-1.341 -1.149,-2.011 -0.77,-1.741 -1.129,-3.696 -1.938,-5.457 -0.388,-0.842 -1.042,-1.693 -1.58,-2.441 -0.595,-0.83 -1.262,-1.44 -1.724,-2.442 -0.164,-0.356 -0.387,-0.927 -0.144,-1.293 0.077,-0.247 0.188,-0.35 0.432,-0.431 0.416,-0.321 1.576,0.107 2.01,0.287 1.152,0.479 2.113,0.934 3.089,1.58 0.468,0.311 0.941,0.911 1.508,1.077 h 0.646 c 1.011,0.232 2.144,0.071 3.088,0.358 1.67,0.508 3.166,1.297 4.524,2.155 4.139,2.614 7.522,6.334 9.838,10.772 0.372,0.715 0.534,1.396 0.861,2.154 0.662,1.528 1.496,3.101 2.154,4.596 0.657,1.491 1.298,2.996 2.227,4.237 0.488,0.652 2.374,1.002 3.231,1.364 0.601,0.254 1.585,0.519 2.154,0.861 1.087,0.656 2.141,1.437 3.16,2.155 0.509,0.362 2.076,1.149 2.154,1.798 z M 90.237,39.593 c -0.526,-0.01 -0.899,0.058 -1.293,0.144 v 0.071 h 0.072 c 0.251,0.517 0.694,0.849 1.005,1.293 l 0.719,1.508 0.071,-0.071 c 0.445,-0.313 0.648,-0.814 0.646,-1.58 -0.179,-0.188 -0.205,-0.423 -0.359,-0.646 -0.204,-0.3 -0.602,-0.468 -0.861,-0.719 z"
       id="path3" />
  </g>
</svg>
