<?xml version="1.0" encoding="UTF-8" standalone="no"?>
<svg
   fill="none"
   viewBox="0 0 96 96"
   id="Python--Streamline-Svg-Logos"
   height="24"
   width="24"
   version="1.1"
   sodipodi:docname="python.svg"
   inkscape:version="1.4.2 (f4327f4, 2025-05-13)"
   xmlns:inkscape="http://www.inkscape.org/namespaces/inkscape"
   xmlns:sodipodi="http://sodipodi.sourceforge.net/DTD/sodipodi-0.dtd"
   xmlns="http://www.w3.org/2000/svg"
   xmlns:svg="http://www.w3.org/2000/svg">
  <sodipodi:namedview
     id="namedview5"
     pagecolor="#ffffff"
     bordercolor="#000000"
     borderopacity="0.25"
     inkscape:showpageshadow="2"
     inkscape:pageopacity="0.0"
     inkscape:pagecheckerboard="0"
     inkscape:deskcolor="#d1d1d1"
     inkscape:zoom="16.8125"
     inkscape:cx="20.907063"
     inkscape:cy="21.3829"
     inkscape:window-width="1920"
     inkscape:window-height="1009"
     inkscape:window-x="-8"
     inkscape:window-y="-8"
     inkscape:window-maximized="1"
     inkscape:current-layer="Python--Streamline-Svg-Logos" />
  <desc
     id="desc1">
    Python Streamline Icon: https://streamlinehq.com
  </desc>
  <g
     id="g5"
     transform="matrix(0.71146242,0,0,0.71146242,13.849876,13.849823)">
    <path
       fill="url(#a)"
       d="m 47.6611,1.24463 c -23.863,0 -22.3728,10.34847 -22.3728,10.34847 l 0.0266,10.7209 h 22.7719 v 3.2189 H 16.27 c 0,0 -15.27,-1.7318 -15.27,22.3463 -2e-6,24.078 13.328,23.2241 13.328,23.2241 h 7.9542 V 59.9302 c 0,0 -0.4288,-13.328 13.1151,-13.328 H 57.983 c 0,0 12.6895,0.2052 12.6895,-12.2638 V 13.7213 c 0,0 1.9266,-12.47667 -23.0114,-12.47667 z M 35.1047,8.45396 c 2.2656,0 4.0968,1.83114 4.0968,4.09684 0,2.2656 -1.8312,4.0968 -4.0968,4.0968 -2.2657,0 -4.0968,-1.8312 -4.0968,-4.0968 0,-2.2657 1.8311,-4.09684 4.0968,-4.09684 z"
       id="path1"
       style="fill:url(#a)" />
    <path
       fill="url(#b)"
       d="m 48.3393,94.7555 c 23.8631,0 22.3729,-10.3484 22.3729,-10.3484 L 70.6856,73.6862 H 47.9137 v -3.2189 h 31.8168 c 0,0 15.27,1.7317 15.27,-22.3463 0,-24.078 -13.328,-23.2242 -13.328,-23.2242 h -7.9542 v 11.1731 c 0,0 0.4288,13.328 -13.1151,13.328 H 38.0175 c 0,0 -12.6895,-0.2051 -12.6895,12.2639 v 20.6171 c 0,0 -1.9267,12.4766 23.0113,12.4766 z m 12.5565,-7.2093 c -2.2657,0 -4.0968,-1.8312 -4.0968,-4.0968 0,-2.2657 1.8311,-4.0968 4.0968,-4.0968 2.2656,0 4.0968,1.8311 4.0968,4.0968 0,2.2656 -1.8312,4.0968 -4.0968,4.0968 z"
       id="path2"
       style="fill:url(#b)" />
  </g>
  <defs
     id="defs5">
    <linearGradient
       id="a"
       x1="904.358"
       x2="5562.66"
       y1="842.346"
       y2="5454.17"
       gradientUnits="userSpaceOnUse">
      <stop
         stop-color="#387eb8"
         id="stop2" />
      <stop
         offset="1"
         stop-color="#366994"
         id="stop3" />
    </linearGradient>
    <linearGradient
       id="b"
       x1="1358.62"
       x2="6361.13"
       y1="1462.61"
       y2="6191.63"
       gradientUnits="userSpaceOnUse">
      <stop
         stop-color="#ffe052"
         id="stop4" />
      <stop
         offset="1"
         stop-color="#ffc331"
         id="stop5" />
    </linearGradient>
  </defs>
</svg>
